<?xml version="1.0" encoding="UTF-8" standalone="no"?>
<svg xmlns="http://www.w3.org/2000/svg" version="1.2" baseProfile="tiny" viewBox="0.00 0.00 491.00 179.00">
<g stroke-width="2.00" fill="none" stroke-linecap="butt">
<path stroke="#ff8ae9" vector-effect="non-scaling-stroke" d="
  M 38.83 1.10
  L 38.90 48.06
  A 1.15 1.14 -11.8 0 1 38.21 49.11
  C 29.31 52.92 26.59 64.47 33.76 71.60
  Q 39.35 77.16 47.35 75.16
  C 53.14 73.72 57.51 67.41 57.32 61.66
  Q 57.03 53.18 48.68 49.00
  A 1.11 1.10 13.8 0 1 48.08 48.02
  L 48.14 1.10"
/>
<path stroke="#ff8ae9" vector-effect="non-scaling-stroke" d="
  M 72.05 1.10
  Q 72.03 27.81 72.04 54.49
  Q 72.04 58.83 71.09 61.89
  Q 68.38 70.60 67.05 74.91
  Q 66.90 75.39 66.44 75.59
  Q 65.77 75.86 64.17 76.22
  C 55.32 78.19 50.57 88.68 55.50 96.43
  Q 61.00 105.08 70.89 102.82
  C 76.36 101.57 80.53 96.45 81.13 91.11
  Q 81.91 84.10 76.01 78.66
  Q 75.64 78.32 75.77 77.83
  Q 76.97 73.61 80.63 62.08
  Q 81.30 59.97 81.30 57.75
  Q 81.27 29.43 81.29 1.10"
/>
<path stroke="#c064e7" vector-effect="non-scaling-stroke" d="
  M 89.93 1.10
  L 89.93 158.90"
/>
<path stroke="#ff8ae9" vector-effect="non-scaling-stroke" d="
  M 11.31 130.94
  L 58.19 130.96
  A 0.98 0.97 24.3 0 1 59.09 131.56
  C 63.38 141.54 76.38 143.27 82.91 134.55
  C 89.11 126.29 83.83 113.76 73.91 112.74
  Q 63.55 111.67 59.08 121.16
  A 1.00 1.00 0.0 0 1 58.18 121.73
  L 11.33 121.65"
/>
<path stroke="#ff8ae9" vector-effect="non-scaling-stroke" d="
  M 11.33 112.69
  L 47.42 112.73
  Q 48.17 112.73 48.17 111.98
  L 48.17 104.19
  Q 48.17 103.37 47.35 103.37
  L 11.32 103.37"
/>
<path stroke="#97a0fa" vector-effect="non-scaling-stroke" d="
  M 168.70 29.22
  L 121.76 29.17
  Q 121.20 29.17 120.97 28.65
  Q 118.36 22.47 112.20 20.60
  C 103.82 18.06 95.26 23.79 94.52 32.41
  C 93.14 48.32 114.70 53.57 120.97 38.97
  A 0.90 0.89 -78.5 0 1 121.79 38.42
  L 168.68 38.47"
/>
<path stroke="#97a0fa" vector-effect="non-scaling-stroke" d="
  M 168.69 47.56
  L 132.32 47.59
  Q 131.95 47.59 131.95 47.96
  L 131.95 56.62
  Q 131.95 56.85 132.18 56.85
  L 168.70 56.82"
/>
<path stroke="#97a0fa" vector-effect="non-scaling-stroke" d="
  M 141.24 158.90
  L 141.21 111.76
  A 0.99 0.98 -12.0 0 1 141.81 110.84
  C 150.25 107.24 153.37 96.59 147.13 89.27
  Q 141.86 83.08 133.64 84.58
  C 127.16 85.76 122.37 92.31 122.76 98.76
  Q 123.25 106.98 131.37 110.92
  A 1.00 0.99 -77.3 0 1 131.93 111.82
  L 131.90 158.90"
/>
<path stroke="#97a0fa" vector-effect="non-scaling-stroke" d="
  M 108.15 158.90
  L 108.13 102.86
  A 11.04 10.97 53.5 0 1 108.59 99.71
  L 112.95 85.22
  Q 113.23 84.30 114.18 84.18
  C 125.29 82.75 130.30 70.17 123.16 61.61
  C 115.62 52.55 101.12 56.72 99.07 68.02
  Q 97.70 75.55 103.91 81.18
  A 1.20 1.19 29.7 0 1 104.25 82.41
  Q 102.00 89.74 99.74 96.93
  Q 98.78 99.98 98.78 103.94
  Q 98.78 131.42 98.74 158.90"
/>
<path stroke="#ff8ae9" vector-effect="non-scaling-stroke" d="
  M 48.08 61.86
  A 4.60 4.60 0.0 0 0 43.48 57.26
  A 4.60 4.60 0.0 0 0 38.88 61.86
  A 4.60 4.60 0.0 0 0 43.48 66.46
  A 4.60 4.60 0.0 0 0 48.08 61.86"
/>
<path stroke="#ff8ae9" vector-effect="non-scaling-stroke" d="
  M 72.02 89.53
  A 4.61 4.61 0.0 0 0 67.41 84.92
  A 4.61 4.61 0.0 0 0 62.80 89.53
  A 4.61 4.61 0.0 0 0 67.41 94.14
  A 4.61 4.61 0.0 0 0 72.02 89.53"
/>
<path stroke="#97a0fa" vector-effect="non-scaling-stroke" d="
  M 112.76 33.82
  A 4.62 4.62 0.0 0 0 108.14 29.20
  A 4.62 4.62 0.0 0 0 103.52 33.82
  A 4.62 4.62 0.0 0 0 108.14 38.44
  A 4.62 4.62 0.0 0 0 112.76 33.82"
/>
<path stroke="#97a0fa" vector-effect="non-scaling-stroke" d="
  M 117.24 70.49
  A 4.60 4.60 0.0 0 0 112.64 65.89
  A 4.60 4.60 0.0 0 0 108.04 70.49
  A 4.60 4.60 0.0 0 0 112.64 75.09
  A 4.60 4.60 0.0 0 0 117.24 70.49"
/>
<path stroke="#97a0fa" vector-effect="non-scaling-stroke" d="
  M 141.17 98.10
  A 4.59 4.59 0.0 0 0 136.58 93.51
  A 4.59 4.59 0.0 0 0 131.99 98.10
  A 4.59 4.59 0.0 0 0 136.58 102.69
  A 4.59 4.59 0.0 0 0 141.17 98.10"
/>
<path stroke="#ff8ae9" vector-effect="non-scaling-stroke" d="
  M 76.53 126.35
  A 4.63 4.63 0.0 0 0 71.90 121.72
  A 4.63 4.63 0.0 0 0 67.27 126.35
  A 4.63 4.63 0.0 0 0 71.90 130.98
  A 4.63 4.63 0.0 0 0 76.53 126.35"
/>
</g>
<path fill="#ff51d9" d="
  M 38.83 1.10
  L 38.90 48.06
  A 1.15 1.14 -11.8 0 1 38.21 49.11
  C 29.31 52.92 26.59 64.47 33.76 71.60
  Q 39.35 77.16 47.35 75.16
  C 53.14 73.72 57.51 67.41 57.32 61.66
  Q 57.03 53.18 48.68 49.00
  A 1.11 1.10 13.8 0 1 48.08 48.02
  L 48.14 1.10
  L 72.05 1.10
  Q 72.03 27.81 72.04 54.49
  Q 72.04 58.83 71.09 61.89
  Q 68.38 70.60 67.05 74.91
  Q 66.90 75.39 66.44 75.59
  Q 65.77 75.86 64.17 76.22
  C 55.32 78.19 50.57 88.68 55.50 96.43
  Q 61.00 105.08 70.89 102.82
  C 76.36 101.57 80.53 96.45 81.13 91.11
  Q 81.91 84.10 76.01 78.66
  Q 75.64 78.32 75.77 77.83
  Q 76.97 73.61 80.63 62.08
  Q 81.30 59.97 81.30 57.75
  Q 81.27 29.43 81.29 1.10
  L 89.93 1.10
  L 89.93 158.90
  L 11.61 158.90
  A 0.32 0.32 0.0 0 1 11.29 158.58
  L 11.31 130.94
  L 58.19 130.96
  A 0.98 0.97 24.3 0 1 59.09 131.56
  C 63.38 141.54 76.38 143.27 82.91 134.55
  C 89.11 126.29 83.83 113.76 73.91 112.74
  Q 63.55 111.67 59.08 121.16
  A 1.00 1.00 0.0 0 1 58.18 121.73
  L 11.33 121.65
  L 11.33 112.69
  L 47.42 112.73
  Q 48.17 112.73 48.17 111.98
  L 48.17 104.19
  Q 48.17 103.37 47.35 103.37
  L 11.32 103.37
  L 11.32 1.50
  A 0.40 0.39 -0.0 0 1 11.72 1.11
  L 38.83 1.10
  Z"
/>
<path fill="#ffc2f8" d="
  M 48.14 1.10
  L 48.08 48.02
  A 1.11 1.10 13.8 0 0 48.68 49.00
  Q 57.03 53.18 57.32 61.66
  C 57.51 67.41 53.14 73.72 47.35 75.16
  Q 39.35 77.16 33.76 71.60
  C 26.59 64.47 29.31 52.92 38.21 49.11
  A 1.15 1.14 -11.8 0 0 38.90 48.06
  L 38.83 1.10
  L 48.14 1.10
  Z
  M 48.08 61.86
  A 4.60 4.60 0.0 0 0 43.48 57.26
  A 4.60 4.60 0.0 0 0 38.88 61.86
  A 4.60 4.60 0.0 0 0 43.48 66.46
  A 4.60 4.60 0.0 0 0 48.08 61.86
  Z"
/>
<path fill="#ffc2f8" d="
  M 81.29 1.10
  Q 81.27 29.43 81.30 57.75
  Q 81.30 59.97 80.63 62.08
  Q 76.97 73.61 75.77 77.83
  Q 75.64 78.32 76.01 78.66
  Q 81.91 84.10 81.13 91.11
  C 80.53 96.45 76.36 101.57 70.89 102.82
  Q 61.00 105.08 55.50 96.43
  C 50.57 88.68 55.32 78.19 64.17 76.22
  Q 65.77 75.86 66.44 75.59
  Q 66.90 75.39 67.05 74.91
  Q 68.38 70.60 71.09 61.89
  Q 72.04 58.83 72.04 54.49
  Q 72.03 27.81 72.05 1.10
  L 81.29 1.10
  Z
  M 72.02 89.53
  A 4.61 4.61 0.0 0 0 67.41 84.92
  A 4.61 4.61 0.0 0 0 62.80 89.53
  A 4.61 4.61 0.0 0 0 67.41 94.14
  A 4.61 4.61 0.0 0 0 72.02 89.53
  Z"
/>
<path fill="#8076f4" d="
  M 168.70 29.22
  L 121.76 29.17
  Q 121.20 29.17 120.97 28.65
  Q 118.36 22.47 112.20 20.60
  C 103.82 18.06 95.26 23.79 94.52 32.41
  C 93.14 48.32 114.70 53.57 120.97 38.97
  A 0.90 0.89 -78.5 0 1 121.79 38.42
  L 168.68 38.47
  L 168.69 47.56
  L 132.32 47.59
  Q 131.95 47.59 131.95 47.96
  L 131.95 56.62
  Q 131.95 56.85 132.18 56.85
  L 168.70 56.82
  L 168.69 158.53
  A 0.37 0.37 0.0 0 1 168.32 158.90
  L 141.24 158.90
  L 141.21 111.76
  A 0.99 0.98 -12.0 0 1 141.81 110.84
  C 150.25 107.24 153.37 96.59 147.13 89.27
  Q 141.86 83.08 133.64 84.58
  C 127.16 85.76 122.37 92.31 122.76 98.76
  Q 123.25 106.98 131.37 110.92
  A 1.00 0.99 -77.3 0 1 131.93 111.82
  L 131.90 158.90
  L 108.15 158.90
  L 108.13 102.86
  A 11.04 10.97 53.5 0 1 108.59 99.71
  L 112.95 85.22
  Q 113.23 84.30 114.18 84.18
  C 125.29 82.75 130.30 70.17 123.16 61.61
  C 115.62 52.55 101.12 56.72 99.07 68.02
  Q 97.70 75.55 103.91 81.18
  A 1.20 1.19 29.7 0 1 104.25 82.41
  Q 102.00 89.74 99.74 96.93
  Q 98.78 99.98 98.78 103.94
  Q 98.78 131.42 98.74 158.90
  L 89.93 158.90
  L 89.93 1.10
  L 168.40 1.10
  A 0.34 0.33 90.0 0 1 168.73 1.44
  L 168.70 29.22
  Z"
/>
<circle fill="#ffc2f8" cx="245.03" cy="19.31" r="8.28"/>
<circle fill="#ffc2f8" cx="311.03" cy="19.32" r="8.28"/>
<path fill="#adc9ff" d="
  M 168.70 29.22
  L 168.68 38.47
  L 121.79 38.42
  A 0.90 0.89 -78.5 0 0 120.97 38.97
  C 114.70 53.57 93.14 48.32 94.52 32.41
  C 95.26 23.79 103.82 18.06 112.20 20.60
  Q 118.36 22.47 120.97 28.65
  Q 121.20 29.17 121.76 29.17
  L 168.70 29.22
  Z
  M 112.76 33.82
  A 4.62 4.62 0.0 0 0 108.14 29.20
  A 4.62 4.62 0.0 0 0 103.52 33.82
  A 4.62 4.62 0.0 0 0 108.14 38.44
  A 4.62 4.62 0.0 0 0 112.76 33.82
  Z"
/>
<circle fill="#8076f4" cx="108.14" cy="33.82" r="4.62"/>
<path fill="#ff51d9" d="
  M 275.40 45.75
  Q 275.80 47.16 278.23 47.82
  C 286.43 50.05 295.26 51.78 297.48 60.12
  Q 298.87 65.38 296.71 70.25
  C 293.04 78.53 281.66 80.23 273.46 78.86
  Q 263.59 77.21 259.10 68.77
  Q 258.86 68.32 259.30 68.07
  L 270.26 61.74
  Q 270.79 61.44 271.06 61.99
  Q 274.29 68.67 282.26 66.22
  A 2.06 2.05 67.8 0 0 283.48 63.31
  Q 282.89 62.17 281.32 61.68
  Q 276.66 60.23 271.98 58.80
  C 269.65 58.09 265.40 55.90 263.72 53.63
  Q 259.50 47.92 261.63 41.28
  Q 263.95 34.04 271.44 31.67
  Q 276.87 29.95 282.36 30.68
  Q 291.68 31.93 296.90 39.86
  Q 297.10 40.16 296.78 40.34
  L 286.02 46.56
  Q 285.42 46.90 285.07 46.31
  Q 282.45 41.90 277.52 42.82
  A 2.60 2.27 -12.9 0 0 275.40 45.75
  Z"
/>
<path fill="#ff51d9" d="
  M 374.81 54.87
  A 24.51 24.51 0.0 0 1 350.30 79.38
  A 24.51 24.51 0.0 0 1 325.79 54.87
  A 24.51 24.51 0.0 0 1 350.30 30.36
  A 24.51 24.51 0.0 0 1 374.81 54.87
  Z
  M 350.0312 65.8567
  A 11.00 10.75 91.4 0 0 361.0468 55.1226
  A 11.00 10.75 91.4 0 0 350.5688 43.8633
  A 11.00 10.75 91.4 0 0 339.5532 54.5974
  A 11.00 10.75 91.4 0 0 350.0312 65.8567
  Z"
/>
<path fill="#ff51d9" d="
  M 397.01 35.21
  Q 397.01 36.07 397.57 35.42
  C 402.64 29.42 413.06 29.27 419.12 32.82
  C 425.01 36.26 427.66 43.13 427.50 49.76
  C 427.26 59.50 427.50 68.89 427.45 77.51
  Q 427.45 78.00 426.96 78.00
  L 414.29 78.00
  Q 413.78 78.00 413.77 77.49
  Q 413.72 75.03 413.71 55.33
  Q 413.71 50.13 413.14 48.41
  Q 411.76 44.20 407.42 43.44
  C 401.52 42.40 397.18 45.56 397.09 51.76
  Q 396.98 58.53 396.97 77.49
  Q 396.97 78.00 396.45 78.00
  L 383.64 78.00
  Q 383.00 78.00 383.00 77.36
  L 383.00 32.23
  Q 383.00 31.72 383.51 31.72
  L 396.37 31.72
  Q 397.01 31.72 397.01 32.37
  L 397.01 35.21
  Z"
/>
<path fill="#ff51d9" d="
  M 207.99 60.67
  Q 208.22 60.67 208.34 60.31
  Q 214.22 41.88 217.48 32.23
  Q 217.66 31.72 218.20 31.72
  L 232.44 31.72
  A 0.38 0.37 -79.7 0 1 232.79 32.23
  L 216.05 77.46
  Q 215.87 77.96 215.34 77.97
  Q 213.62 78.00 207.98 78.00
  Q 202.35 78.00 200.63 77.97
  Q 200.10 77.96 199.92 77.46
  L 183.20 32.22
  A 0.38 0.37 79.7 0 1 183.55 31.71
  L 197.79 31.72
  Q 198.33 31.72 198.51 32.23
  Q 201.76 41.88 207.64 60.31
  Q 207.75 60.67 207.99 60.67
  Z"
/>
<rect fill="#ff51d9" x="238.00" y="31.72" width="14.00" height="46.28" rx="0.40"/>
<rect fill="#ff51d9" x="304.01" y="31.71" width="13.98" height="46.30" rx="0.39"/>
<path fill="#adc9ff" d="
  M 168.69 47.56
  L 168.70 56.82
  L 132.18 56.85
  Q 131.95 56.85 131.95 56.62
  L 131.95 47.96
  Q 131.95 47.59 132.32 47.59
  L 168.69 47.56
  Z"
/>
<path fill="#adc9ff" d="
  M 108.15 158.90
  L 98.74 158.90
  Q 98.78 131.42 98.78 103.94
  Q 98.78 99.98 99.74 96.93
  Q 102.00 89.74 104.25 82.41
  A 1.20 1.19 29.7 0 0 103.91 81.18
  Q 97.70 75.55 99.07 68.02
  C 101.12 56.72 115.62 52.55 123.16 61.61
  C 130.30 70.17 125.29 82.75 114.18 84.18
  Q 113.23 84.30 112.95 85.22
  L 108.59 99.71
  A 11.04 10.97 53.5 0 0 108.13 102.86
  L 108.15 158.90
  Z
  M 117.24 70.49
  A 4.60 4.60 0.0 0 0 112.64 65.89
  A 4.60 4.60 0.0 0 0 108.04 70.49
  A 4.60 4.60 0.0 0 0 112.64 75.09
  A 4.60 4.60 0.0 0 0 117.24 70.49
  Z"
/>
<circle fill="#ff51d9" cx="43.48" cy="61.86" r="4.60"/>
<circle fill="#8076f4" cx="112.64" cy="70.49" r="4.60"/>
<path fill="#adc9ff" d="
  M 141.24 158.90
  L 131.90 158.90
  L 131.93 111.82
  A 1.00 0.99 -77.3 0 0 131.37 110.92
  Q 123.25 106.98 122.76 98.76
  C 122.37 92.31 127.16 85.76 133.64 84.58
  Q 141.86 83.08 147.13 89.27
  C 153.37 96.59 150.25 107.24 141.81 110.84
  A 0.99 0.98 -12.0 0 0 141.21 111.76
  L 141.24 158.90
  Z
  M 141.17 98.10
  A 4.59 4.59 0.0 0 0 136.58 93.51
  A 4.59 4.59 0.0 0 0 131.99 98.10
  A 4.59 4.59 0.0 0 0 136.58 102.69
  A 4.59 4.59 0.0 0 0 141.17 98.10
  Z"
/>
<circle fill="#ff51d9" cx="67.41" cy="89.53" r="4.61"/>
<circle fill="#adc9ff" cx="358.03" cy="98.31" r="8.28"/>
<circle fill="#8076f4" cx="136.58" cy="98.10" r="4.59"/>
<path fill="#ffc2f8" d="
  M 11.33 112.69
  L 11.32 103.37
  L 47.35 103.37
  Q 48.17 103.37 48.17 104.19
  L 48.17 111.98
  Q 48.17 112.73 47.42 112.73
  L 11.33 112.69
  Z"
/>
<path fill="#8076f4" d="
  M 198.81 141.07
  Q 200.52 145.31 205.77 146.44
  Q 213.08 148.02 218.16 143.77
  Q 218.58 143.42 219.05 143.69
  L 229.05 149.47
  Q 229.52 149.74 229.20 150.17
  Q 224.48 156.58 216.47 158.46
  C 202.10 161.83 186.51 154.98 184.13 139.11
  Q 182.74 129.82 187.04 122.26
  Q 191.98 113.58 201.97 111.22
  Q 209.71 109.40 216.44 111.81
  C 228.24 116.04 233.45 127.83 231.40 139.94
  Q 231.31 140.45 230.79 140.45
  L 199.23 140.45
  Q 198.56 140.45 198.81 141.07
  Z
  M 198.78 130.00
  L 217.58 130.00
  A 0.15 0.15 0.0 0 0 217.73 129.85
  L 217.73 129.77
  A 9.44 6.93 0.0 0 0 208.29 122.84
  L 208.07 122.84
  A 9.44 6.93 0.0 0 0 198.63 129.77
  L 198.63 129.85
  A 0.15 0.15 0.0 0 0 198.78 130.00
  Z"
/>
<path fill="#8076f4" d="
  M 254.02 115.21
  Q 254.02 116.07 254.58 115.42
  C 259.65 109.42 270.06 109.27 276.12 112.82
  C 282.01 116.26 284.66 123.13 284.50 129.76
  C 284.26 139.50 284.49 148.88 284.44 157.50
  Q 284.44 157.99 283.95 157.99
  L 271.29 157.99
  Q 270.78 157.99 270.77 157.48
  Q 270.72 155.02 270.71 135.33
  Q 270.71 130.13 270.14 128.41
  Q 268.76 124.20 264.42 123.44
  C 258.53 122.40 254.19 125.55 254.09 131.75
  Q 253.98 138.52 253.97 157.48
  Q 253.97 157.99 253.45 157.99
  L 240.64 157.98
  Q 240.00 157.98 240.00 157.34
  L 240.01 112.23
  Q 240.01 111.72 240.52 111.72
  L 253.38 111.72
  Q 254.02 111.72 254.02 112.37
  L 254.02 115.21
  Z"
/>
<path fill="#8076f4" d="
  M 327.48 152.32
  Q 320.97 157.93 314.19 157.46
  Q 298.68 156.39 293.27 142.26
  C 290.30 134.50 291.85 125.13 297.10 118.74
  Q 305.06 109.08 318.29 110.77
  Q 323.17 111.40 327.56 115.85
  Q 327.99 116.29 327.99 115.68
  L 327.99 112.23
  Q 327.99 111.72 328.50 111.72
  L 340.94 111.72
  Q 341.44 111.72 341.45 112.22
  Q 341.48 129.47 341.47 153.08
  Q 341.47 161.05 339.99 164.49
  C 334.88 176.37 321.46 179.49 309.77 176.99
  Q 300.56 175.03 295.47 167.09
  Q 295.17 166.62 295.65 166.35
  L 306.41 160.13
  Q 306.90 159.85 307.26 160.28
  C 308.00 161.17 308.92 162.53 310.15 163.47
  Q 313.28 165.85 318.56 165.58
  Q 325.91 165.21 327.87 158.57
  Q 328.18 157.54 327.96 152.52
  Q 327.93 151.92 327.48 152.32
  Z
  M 328.1696 134.0487
  A 11.31 10.86 0.5 0 0 316.9548 123.0904
  A 11.31 10.86 0.5 0 0 305.5504 133.8513
  A 11.31 10.86 0.5 0 0 316.7652 144.8096
  A 11.31 10.86 0.5 0 0 328.1696 134.0487
  Z"
/>
<path fill="#8076f4" d="
  M 389.01 115.21
  Q 389.01 116.07 389.57 115.42
  C 394.64 109.42 405.06 109.27 411.12 112.82
  C 417.01 116.26 419.66 123.13 419.50 129.76
  C 419.26 139.50 419.50 148.89 419.44 157.51
  Q 419.44 158.00 418.95 158.00
  L 406.28 158.00
  Q 405.77 158.00 405.76 157.49
  Q 405.71 155.03 405.71 135.33
  Q 405.71 130.13 405.14 128.41
  Q 403.76 124.20 399.42 123.44
  C 393.52 122.40 389.18 125.56 389.09 131.76
  Q 388.98 138.53 388.96 157.49
  Q 388.96 158.00 388.44 158.00
  L 375.63 158.00
  Q 374.99 158.00 374.99 157.36
  L 375.00 112.22
  Q 375.00 111.71 375.51 111.71
  L 388.37 111.72
  Q 389.01 111.72 389.01 112.37
  L 389.01 115.21
  Z"
/>
<path fill="#8076f4" d="
  M 442.23 140.45
  Q 441.56 140.45 441.81 141.07
  Q 443.52 145.31 448.77 146.44
  Q 456.08 148.02 461.16 143.77
  Q 461.58 143.42 462.05 143.69
  L 472.05 149.47
  Q 472.52 149.74 472.20 150.17
  Q 467.48 156.58 459.47 158.46
  C 445.10 161.83 429.51 154.98 427.13 139.11
  Q 425.74 129.82 430.04 122.26
  Q 434.98 113.58 444.97 111.22
  Q 452.71 109.40 459.44 111.81
  C 471.24 116.04 476.45 127.83 474.40 139.94
  Q 474.31 140.45 473.79 140.45
  L 442.23 140.45
  Z
  M 441.78 130.00
  L 460.58 130.00
  A 0.15 0.15 0.0 0 0 460.73 129.85
  L 460.73 129.77
  A 9.44 6.93 -0.0 0 0 451.29 122.84
  L 451.07 122.84
  A 9.44 6.93 0.0 0 0 441.63 129.77
  L 441.63 129.85
  A 0.15 0.15 0.0 0 0 441.78 130.00
  Z"
/>
<rect fill="#8076f4" x="351.00" y="111.71" width="14.00" height="46.28" rx="0.47"/>
<path fill="#ffc2f8" d="
  M 11.31 130.94
  L 11.33 121.65
  L 58.18 121.73
  A 1.00 1.00 0.0 0 0 59.08 121.16
  Q 63.55 111.67 73.91 112.74
  C 83.83 113.76 89.11 126.29 82.91 134.55
  C 76.38 143.27 63.38 141.54 59.09 131.56
  A 0.97 0.97 0.0 0 0 58.19 130.96
  L 11.31 130.94
  Z
  M 76.53 126.35
  A 4.63 4.63 0.0 0 0 71.90 121.72
  A 4.63 4.63 0.0 0 0 67.27 126.35
  A 4.63 4.63 0.0 0 0 71.90 130.98
  A 4.63 4.63 0.0 0 0 76.53 126.35
  Z"
/>
<circle fill="#ff51d9" cx="71.90" cy="126.35" r="4.63"/>
</svg>
