<?xml version="1.0" encoding="UTF-8" standalone="no"?>
<svg xmlns="http://www.w3.org/2000/svg" version="1.2" baseProfile="tiny" viewBox="0.00 0.00 512.00 512.00">
<g stroke-width="2.00" fill="none" stroke-linecap="butt">
<path stroke="#ff8ae9" vector-effect="non-scaling-stroke" d="
  M 89.55 0.00
  L 89.53 154.01
  Q 89.53 154.50 89.06 154.69
  Q 72.52 161.23 64.67 176.23
  C 51.60 201.23 64.86 231.82 91.25 239.89
  Q 100.87 242.84 110.94 241.46
  C 137.16 237.86 154.87 211.64 148.07 185.67
  C 144.77 173.07 135.83 161.63 123.40 156.14
  Q 121.76 155.42 120.08 154.74
  Q 119.56 154.53 119.56 153.97
  L 119.55 0.00"
/>
<path stroke="#ff8ae9" vector-effect="non-scaling-stroke" d="
  M 197.39 0.00
  L 197.42 184.74
  A 8.43 8.35 -36.8 0 1 197.06 187.17
  L 180.55 241.51
  Q 180.41 241.97 179.92 242.01
  Q 163.32 243.35 151.98 253.90
  C 132.15 272.34 132.71 303.15 153.01 320.91
  C 165.26 331.63 182.62 334.76 197.74 329.21
  C 225.11 319.14 235.85 286.66 219.89 262.15
  Q 216.09 256.31 209.51 251.08
  A 0.76 0.74 -63.1 0 1 209.26 250.27
  Q 210.04 247.62 226.39 193.80
  Q 227.39 190.53 227.39 187.11
  Q 227.39 93.56 227.38 0.00"
/>
<path stroke="#c064e7" vector-effect="non-scaling-stroke" d="
  M 255.96 0.00
  L 255.97 512.00"
/>
<path stroke="#ff8ae9" vector-effect="non-scaling-stroke" d="
  M 0.00 421.79
  L 153.94 421.82
  Q 154.46 421.82 154.66 422.30
  Q 156.52 426.73 157.55 428.50
  C 166.66 444.29 183.09 453.28 201.22 451.57
  C 224.60 449.37 242.31 429.41 241.86 406.03
  Q 241.48 386.41 226.52 373.03
  C 214.39 362.18 196.59 358.86 181.34 364.65
  Q 162.59 371.77 154.60 391.43
  Q 154.45 391.80 154.05 391.80
  L 0.00 391.78"
/>
<path stroke="#ff8ae9" vector-effect="non-scaling-stroke" d="
  M 0.00 362.37
  L 119.02 362.37
  Q 119.56 362.37 119.56 361.82
  L 119.56 332.76
  Q 119.56 332.37 119.18 332.37
  L 0.00 332.40"
/>
<path stroke="#ff8ae9" vector-effect="non-scaling-stroke" d="
  M 119.51 196.96
  A 14.95 14.95 0.0 0 0 104.56 182.01
  A 14.95 14.95 0.0 0 0 89.61 196.96
  A 14.95 14.95 0.0 0 0 104.56 211.91
  A 14.95 14.95 0.0 0 0 119.51 196.96"
/>
<path stroke="#ff8ae9" vector-effect="non-scaling-stroke" d="
  M 197.36 286.96
  A 14.96 14.96 0.0 0 0 182.40 272.00
  A 14.96 14.96 0.0 0 0 167.44 286.96
  A 14.96 14.96 0.0 0 0 182.40 301.92
  A 14.96 14.96 0.0 0 0 197.36 286.96"
/>
<path stroke="#c064e7" vector-effect="non-scaling-stroke" d="
  M 511.22 0.00
  L 512.00 0.75"
/>
<path stroke="#97a0fa" vector-effect="non-scaling-stroke" d="
  M 512.00 90.62
  L 357.84 90.62
  A 0.53 0.52 79.4 0 1 357.35 90.28
  Q 351.66 75.55 338.92 67.54
  C 325.14 58.88 307.75 58.38 293.62 66.12
  C 270.18 78.97 262.51 109.60 278.41 131.63
  C 294.32 153.68 324.88 156.98 345.20 138.94
  Q 353.12 131.92 357.26 121.11
  Q 357.45 120.63 357.96 120.63
  L 512.00 120.60"
/>
<path stroke="#97a0fa" vector-effect="non-scaling-stroke" d="
  M 512.00 150.62
  L 392.68 150.67
  A 0.25 0.25 0.0 0 0 392.43 150.92
  L 392.43 180.04
  Q 392.43 180.61 392.99 180.61
  L 512.00 180.60"
/>
<path stroke="#97a0fa" vector-effect="non-scaling-stroke" d="
  M 422.42 512.00
  L 422.44 357.95
  Q 422.44 357.46 422.88 357.22
  Q 423.93 356.64 425.04 356.17
  C 453.46 344.31 461.22 307.88 441.04 285.01
  C 423.99 265.70 393.12 264.59 375.25 283.52
  Q 362.02 297.53 362.54 315.81
  C 363.07 334.45 374.38 350.56 392.11 357.15
  A 0.49 0.49 0.0 0 1 392.43 357.61
  L 392.45 512.00"
/>
<path stroke="#97a0fa" vector-effect="non-scaling-stroke" d="
  M 314.58 512.00
  Q 314.62 420.70 314.61 329.40
  Q 314.61 325.97 315.60 322.70
  Q 323.50 296.66 331.43 270.59
  Q 331.57 270.11 332.07 270.04
  Q 337.32 269.36 338.77 269.05
  Q 350.25 266.60 358.72 259.23
  C 384.34 236.94 377.79 195.74 346.01 183.17
  C 321.44 173.46 293.34 187.34 286.28 213.02
  C 281.33 231.00 287.72 249.50 302.54 260.93
  A 0.69 0.69 0.0 0 1 302.78 261.68
  Q 294.22 289.83 285.60 318.19
  Q 284.61 321.47 284.61 324.89
  Q 284.59 418.44 284.61 512.00"
/>
<path stroke="#97a0fa" vector-effect="non-scaling-stroke" d="
  M 329.99 105.62
  A 14.95 14.95 0.0 0 0 315.04 90.67
  A 14.95 14.95 0.0 0 0 300.09 105.62
  A 14.95 14.95 0.0 0 0 315.04 120.57
  A 14.95 14.95 0.0 0 0 329.99 105.62"
/>
<path stroke="#97a0fa" vector-effect="non-scaling-stroke" d="
  M 344.54 225.04
  A 14.95 14.95 0.0 0 0 329.59 210.09
  A 14.95 14.95 0.0 0 0 314.64 225.04
  A 14.95 14.95 0.0 0 0 329.59 239.99
  A 14.95 14.95 0.0 0 0 344.54 225.04"
/>
<path stroke="#97a0fa" vector-effect="non-scaling-stroke" d="
  M 422.39 314.84
  A 14.95 14.95 0.0 0 0 407.44 299.89
  A 14.95 14.95 0.0 0 0 392.49 314.84
  A 14.95 14.95 0.0 0 0 407.44 329.79
  A 14.95 14.95 0.0 0 0 422.39 314.84"
/>
<path stroke="#ff8ae9" vector-effect="non-scaling-stroke" d="
  M 211.92 406.82
  A 14.96 14.96 0.0 0 0 196.96 391.86
  A 14.96 14.96 0.0 0 0 182.00 406.82
  A 14.96 14.96 0.0 0 0 196.96 421.78
  A 14.96 14.96 0.0 0 0 211.92 406.82"
/>
</g>
<path fill="#ff51d9" d="
  M 89.55 0.00
  L 89.53 154.01
  Q 89.53 154.50 89.06 154.69
  Q 72.52 161.23 64.67 176.23
  C 51.60 201.23 64.86 231.82 91.25 239.89
  Q 100.87 242.84 110.94 241.46
  C 137.16 237.86 154.87 211.64 148.07 185.67
  C 144.77 173.07 135.83 161.63 123.40 156.14
  Q 121.76 155.42 120.08 154.74
  Q 119.56 154.53 119.56 153.97
  L 119.55 0.00
  L 197.39 0.00
  L 197.42 184.74
  A 8.43 8.35 -36.8 0 1 197.06 187.17
  L 180.55 241.51
  Q 180.41 241.97 179.92 242.01
  Q 163.32 243.35 151.98 253.90
  C 132.15 272.34 132.71 303.15 153.01 320.91
  C 165.26 331.63 182.62 334.76 197.74 329.21
  C 225.11 319.14 235.85 286.66 219.89 262.15
  Q 216.09 256.31 209.51 251.08
  A 0.76 0.74 -63.1 0 1 209.26 250.27
  Q 210.04 247.62 226.39 193.80
  Q 227.39 190.53 227.39 187.11
  Q 227.39 93.56 227.38 0.00
  L 255.96 0.00
  L 255.97 512.00
  L 0.00 512.00
  L 0.00 421.79
  L 153.94 421.82
  Q 154.46 421.82 154.66 422.30
  Q 156.52 426.73 157.55 428.50
  C 166.66 444.29 183.09 453.28 201.22 451.57
  C 224.60 449.37 242.31 429.41 241.86 406.03
  Q 241.48 386.41 226.52 373.03
  C 214.39 362.18 196.59 358.86 181.34 364.65
  Q 162.59 371.77 154.60 391.43
  Q 154.45 391.80 154.05 391.80
  L 0.00 391.78
  L 0.00 362.37
  L 119.02 362.37
  Q 119.56 362.37 119.56 361.82
  L 119.56 332.76
  Q 119.56 332.37 119.18 332.37
  L 0.00 332.40
  L 0.00 0.00
  L 89.55 0.00
  Z"
/>
<path fill="#ffc2f8" d="
  M 119.55 0.00
  L 119.56 153.97
  Q 119.56 154.53 120.08 154.74
  Q 121.76 155.42 123.40 156.14
  C 135.83 161.63 144.77 173.07 148.07 185.67
  C 154.87 211.64 137.16 237.86 110.94 241.46
  Q 100.87 242.84 91.25 239.89
  C 64.86 231.82 51.60 201.23 64.67 176.23
  Q 72.52 161.23 89.06 154.69
  Q 89.53 154.50 89.53 154.01
  L 89.55 0.00
  L 119.55 0.00
  Z
  M 119.51 196.96
  A 14.95 14.95 0.0 0 0 104.56 182.01
  A 14.95 14.95 0.0 0 0 89.61 196.96
  A 14.95 14.95 0.0 0 0 104.56 211.91
  A 14.95 14.95 0.0 0 0 119.51 196.96
  Z"
/>
<path fill="#ffc2f8" d="
  M 227.38 0.00
  Q 227.39 93.56 227.39 187.11
  Q 227.39 190.53 226.39 193.80
  Q 210.04 247.62 209.26 250.27
  A 0.76 0.74 -63.1 0 0 209.51 251.08
  Q 216.09 256.31 219.89 262.15
  C 235.85 286.66 225.11 319.14 197.74 329.21
  C 182.62 334.76 165.26 331.63 153.01 320.91
  C 132.71 303.15 132.15 272.34 151.98 253.90
  Q 163.32 243.35 179.92 242.01
  Q 180.41 241.97 180.55 241.51
  L 197.06 187.17
  A 8.43 8.35 -36.8 0 0 197.42 184.74
  L 197.39 0.00
  L 227.38 0.00
  Z
  M 197.36 286.96
  A 14.96 14.96 0.0 0 0 182.40 272.00
  A 14.96 14.96 0.0 0 0 167.44 286.96
  A 14.96 14.96 0.0 0 0 182.40 301.92
  A 14.96 14.96 0.0 0 0 197.36 286.96
  Z"
/>
<path fill="#8076f4" d="
  M 511.22 0.00
  L 512.00 0.75
  L 512.00 90.62
  L 357.84 90.62
  A 0.53 0.52 79.4 0 1 357.35 90.28
  Q 351.66 75.55 338.92 67.54
  C 325.14 58.88 307.75 58.38 293.62 66.12
  C 270.18 78.97 262.51 109.60 278.41 131.63
  C 294.32 153.68 324.88 156.98 345.20 138.94
  Q 353.12 131.92 357.26 121.11
  Q 357.45 120.63 357.96 120.63
  L 512.00 120.60
  L 512.00 150.62
  L 392.68 150.67
  A 0.25 0.25 0.0 0 0 392.43 150.92
  L 392.43 180.04
  Q 392.43 180.61 392.99 180.61
  L 512.00 180.60
  L 512.00 512.00
  L 422.42 512.00
  L 422.44 357.95
  Q 422.44 357.46 422.88 357.22
  Q 423.93 356.64 425.04 356.17
  C 453.46 344.31 461.22 307.88 441.04 285.01
  C 423.99 265.70 393.12 264.59 375.25 283.52
  Q 362.02 297.53 362.54 315.81
  C 363.07 334.45 374.38 350.56 392.11 357.15
  A 0.49 0.49 0.0 0 1 392.43 357.61
  L 392.45 512.00
  L 314.58 512.00
  Q 314.62 420.70 314.61 329.40
  Q 314.61 325.97 315.60 322.70
  Q 323.50 296.66 331.43 270.59
  Q 331.57 270.11 332.07 270.04
  Q 337.32 269.36 338.77 269.05
  Q 350.25 266.60 358.72 259.23
  C 384.34 236.94 377.79 195.74 346.01 183.17
  C 321.44 173.46 293.34 187.34 286.28 213.02
  C 281.33 231.00 287.72 249.50 302.54 260.93
  A 0.69 0.69 0.0 0 1 302.78 261.68
  Q 294.22 289.83 285.60 318.19
  Q 284.61 321.47 284.61 324.89
  Q 284.59 418.44 284.61 512.00
  L 255.97 512.00
  L 255.96 0.00
  L 511.22 0.00
  Z"
/>
<path fill="#ff51d9" d="
  M 512.00 0.00
  L 512.00 0.75
  L 511.22 0.00
  L 512.00 0.00
  Z"
/>
<path fill="#adc9ff" d="
  M 512.00 90.62
  L 512.00 120.60
  L 357.96 120.63
  Q 357.45 120.63 357.26 121.11
  Q 353.12 131.92 345.20 138.94
  C 324.88 156.98 294.32 153.68 278.41 131.63
  C 262.51 109.60 270.18 78.97 293.62 66.12
  C 307.75 58.38 325.14 58.88 338.92 67.54
  Q 351.66 75.55 357.35 90.28
  A 0.53 0.52 79.4 0 0 357.84 90.62
  L 512.00 90.62
  Z
  M 329.99 105.62
  A 14.95 14.95 0.0 0 0 315.04 90.67
  A 14.95 14.95 0.0 0 0 300.09 105.62
  A 14.95 14.95 0.0 0 0 315.04 120.57
  A 14.95 14.95 0.0 0 0 329.99 105.62
  Z"
/>
<circle fill="#8076f4" cx="315.04" cy="105.62" r="14.95"/>
<path fill="#adc9ff" d="
  M 512.00 150.62
  L 512.00 180.60
  L 392.99 180.61
  Q 392.43 180.61 392.43 180.04
  L 392.43 150.92
  A 0.25 0.25 0.0 0 1 392.68 150.67
  L 512.00 150.62
  Z"
/>
<path fill="#adc9ff" d="
  M 314.58 512.00
  L 284.61 512.00
  Q 284.59 418.44 284.61 324.89
  Q 284.61 321.47 285.60 318.19
  Q 294.22 289.83 302.78 261.68
  A 0.69 0.69 0.0 0 0 302.54 260.93
  C 287.72 249.50 281.33 231.00 286.28 213.02
  C 293.34 187.34 321.44 173.46 346.01 183.17
  C 377.79 195.74 384.34 236.94 358.72 259.23
  Q 350.25 266.60 338.77 269.05
  Q 337.32 269.36 332.07 270.04
  Q 331.57 270.11 331.43 270.59
  Q 323.50 296.66 315.60 322.70
  Q 314.61 325.97 314.61 329.40
  Q 314.62 420.70 314.58 512.00
  Z
  M 344.54 225.04
  A 14.95 14.95 0.0 0 0 329.59 210.09
  A 14.95 14.95 0.0 0 0 314.64 225.04
  A 14.95 14.95 0.0 0 0 329.59 239.99
  A 14.95 14.95 0.0 0 0 344.54 225.04
  Z"
/>
<circle fill="#ff51d9" cx="104.56" cy="196.96" r="14.95"/>
<circle fill="#8076f4" cx="329.59" cy="225.04" r="14.95"/>
<path fill="#adc9ff" d="
  M 422.42 512.00
  L 392.45 512.00
  L 392.43 357.61
  A 0.49 0.49 0.0 0 0 392.11 357.15
  C 374.38 350.56 363.07 334.45 362.54 315.81
  Q 362.02 297.53 375.25 283.52
  C 393.12 264.59 423.99 265.70 441.04 285.01
  C 461.22 307.88 453.46 344.31 425.04 356.17
  Q 423.93 356.64 422.88 357.22
  Q 422.44 357.46 422.44 357.95
  L 422.42 512.00
  Z
  M 422.39 314.84
  A 14.95 14.95 0.0 0 0 407.44 299.89
  A 14.95 14.95 0.0 0 0 392.49 314.84
  A 14.95 14.95 0.0 0 0 407.44 329.79
  A 14.95 14.95 0.0 0 0 422.39 314.84
  Z"
/>
<circle fill="#ff51d9" cx="182.40" cy="286.96" r="14.96"/>
<circle fill="#8076f4" cx="407.44" cy="314.84" r="14.95"/>
<path fill="#ffc2f8" d="
  M 0.00 362.37
  L 0.00 332.40
  L 119.18 332.37
  Q 119.56 332.37 119.56 332.76
  L 119.56 361.82
  Q 119.56 362.37 119.02 362.37
  L 0.00 362.37
  Z"
/>
<path fill="#ffc2f8" d="
  M 0.00 421.79
  L 0.00 391.78
  L 154.05 391.80
  Q 154.45 391.80 154.60 391.43
  Q 162.59 371.77 181.34 364.65
  C 196.59 358.86 214.39 362.18 226.52 373.03
  Q 241.48 386.41 241.86 406.03
  C 242.31 429.41 224.60 449.37 201.22 451.57
  C 183.09 453.28 166.66 444.29 157.55 428.50
  Q 156.52 426.73 154.66 422.30
  Q 154.46 421.82 153.94 421.82
  L 0.00 421.79
  Z
  M 211.92 406.82
  A 14.96 14.96 0.0 0 0 196.96 391.86
  A 14.96 14.96 0.0 0 0 182.00 406.82
  A 14.96 14.96 0.0 0 0 196.96 421.78
  A 14.96 14.96 0.0 0 0 211.92 406.82
  Z"
/>
<circle fill="#ff51d9" cx="196.96" cy="406.82" r="14.96"/>
</svg>
